<?xml version="1.0" standalone="no"?>
<!DOCTYPE svg PUBLIC "-//W3C//DTD SVG 20010904//EN"
 "http://www.w3.org/TR/2001/REC-SVG-20010904/DTD/svg10.dtd">
<svg version="1.0" xmlns="http://www.w3.org/2000/svg"
 width="500.000000pt" height="500.000000pt" viewBox="0 0 500.000000 500.000000"
 preserveAspectRatio="xMidYMid meet">

<g transform="translate(0.000000,500.000000) scale(0.100000,-0.100000)"
fill="#000000" stroke="none">
<path d="M915 3230 c-4 -6 -67 -159 -140 -340 l-134 -330 78 0 77 0 24 70 24
70 132 0 132 0 25 -67 25 -68 77 -3 c60 -2 76 0 72 10 -2 7 -64 160 -137 341
l-133 327 -58 0 c-32 0 -61 -5 -64 -10z m108 -288 c21 -57 37 -108 37 -113 0
-5 -38 -9 -85 -9 -47 0 -85 2 -85 4 0 21 84 236 90 229 4 -4 23 -54 43 -111z"/>
<path d="M1501 3188 c-14 -66 -121 -620 -121 -625 0 -2 35 -3 78 -3 l79 0 39
230 c21 127 41 230 44 230 4 0 35 -102 71 -227 l64 -228 71 -3 70 -3 63 223
c35 123 66 229 70 236 4 7 25 -92 47 -220 l39 -233 78 -3 c58 -2 77 0 77 10 0
7 -29 159 -64 338 l-63 325 -86 3 -86 3 -9 -33 c-53 -187 -126 -425 -133 -432
-4 -5 -15 18 -25 50 -9 33 -40 138 -69 234 l-52 175 -86 3 -85 3 -11 -53z"/>
<path d="M2615 3230 c-4 -6 -67 -159 -140 -340 l-134 -330 78 0 77 0 24 70 24
70 132 0 132 0 25 -67 25 -68 77 -3 c60 -2 76 0 72 10 -2 7 -64 160 -137 341
l-133 327 -58 0 c-32 0 -61 -5 -64 -10z m108 -288 c21 -57 37 -108 37 -113 0
-5 -38 -9 -85 -9 -47 0 -85 2 -85 4 0 21 84 236 90 229 4 -4 23 -54 43 -111z"/>
<path d="M3140 2900 l0 -340 70 0 69 0 3 123 3 122 83 -122 82 -123 91 0 90 0
-63 81 c-35 44 -78 100 -96 124 l-33 44 38 20 c75 38 113 103 113 193 -1 103
-66 187 -162 208 -27 5 -103 10 -168 10 l-120 0 0 -340z m260 212 c62 -30 73
-116 23 -167 -22 -21 -35 -25 -84 -25 l-59 0 0 105 0 105 43 0 c23 0 58 -8 77
-18z"/>
<path d="M3955 3230 c-4 -6 -67 -159 -140 -340 l-134 -330 78 0 77 0 24 70 24
70 132 0 133 0 21 -57 c11 -32 23 -64 25 -70 3 -9 29 -13 81 -13 57 0 75 3 71
13 -2 6 -64 159 -137 340 l-133 327 -58 0 c-32 0 -61 -5 -64 -10z m108 -288
c21 -57 37 -108 37 -113 0 -5 -38 -9 -85 -9 -47 0 -85 2 -85 4 0 21 84 236 90
229 4 -4 23 -54 43 -111z"/>
<path d="M2155 2220 c-3 -5 -1 -10 4 -10 6 0 11 5 11 10 0 6 -2 10 -4 10 -3 0
-8 -4 -11 -10z"/>
<path d="M632 2188 c-17 -17 -15 -73 3 -88 10 -8 24 -9 42 -4 l28 8 -32 4
c-30 3 -33 6 -33 37 0 32 20 52 41 39 5 -3 9 0 9 5 0 15 -43 14 -58 -1z"/>
<path d="M789 2176 c-25 -53 25 -110 66 -76 18 15 20 71 3 88 -21 21 -57 14
-69 -12z m59 -30 c-2 -23 -8 -31 -23 -31 -23 0 -33 38 -15 60 19 23 41 6 38
-29z"/>
<path d="M970 2183 c0 -10 -3 -35 -6 -55 -5 -25 -3 -38 5 -38 6 0 11 18 12 43
1 41 1 41 12 15 6 -16 16 -28 22 -28 6 0 16 12 22 28 11 26 11 26 12 -15 1
-25 6 -43 12 -43 8 0 9 11 5 31 -3 17 -6 42 -6 55 0 36 -26 29 -35 -8 l-7 -33
-14 33 c-15 35 -34 43 -34 15z"/>
<path d="M1162 2154 c3 -54 26 -77 56 -58 19 12 31 104 13 104 -6 0 -11 -20
-11 -45 0 -38 -3 -45 -20 -45 -17 0 -20 7 -20 45 0 25 -5 45 -11 45 -6 0 -9
-19 -7 -46z"/>
<path d="M1340 2145 c0 -30 4 -55 9 -55 5 0 7 19 4 42 -7 50 10 45 27 -7 18
-56 40 -45 40 20 0 34 -4 55 -11 55 -8 0 -10 -12 -6 -35 3 -19 2 -35 -3 -35
-5 0 -14 16 -20 35 -18 56 -40 45 -40 -20z"/>
<path d="M1520 2145 c0 -30 3 -55 8 -55 4 0 7 25 7 55 0 30 -3 55 -7 55 -5 0
-8 -25 -8 -55z"/>
<path d="M1634 2186 c-10 -25 1 -79 17 -89 10 -6 24 -7 35 -2 17 8 15 9 -9 13
-26 3 -28 7 -25 40 3 32 6 37 26 35 12 -2 22 2 22 7 0 16 -60 12 -66 -4z"/>
<path d="M1798 2148 c-16 -55 -14 -76 3 -45 6 9 16 17 24 17 8 0 18 -8 24 -17
17 -31 19 -10 3 45 -8 28 -20 52 -27 52 -7 0 -19 -24 -27 -52z m41 -10 c1 -5
-6 -8 -15 -8 -11 0 -14 5 -10 16 3 9 6 21 7 27 0 12 17 -20 18 -35z"/>
<path d="M1957 2193 c-4 -3 -7 -23 -7 -44 0 -27 6 -42 21 -53 13 -8 18 -20 14
-28 -4 -7 2 -2 14 12 l20 25 -25 3 c-22 3 -25 7 -22 40 3 32 6 37 26 35 12 -2
22 2 22 7 0 11 -53 14 -63 3z"/>
<path d="M2115 2148 c-15 -52 -12 -78 6 -45 12 21 35 22 43 2 3 -8 9 -15 14
-15 5 0 2 25 -6 55 -8 31 -21 55 -28 55 -7 0 -20 -23 -29 -52z m31 -16 c-12
-11 -18 7 -10 30 l8 23 4 -23 c2 -13 1 -26 -2 -30z"/>
<path d="M2270 2174 c-21 -54 25 -107 65 -74 18 15 20 71 3 88 -21 21 -58 14
-68 -14z m58 -27 c3 -32 0 -37 -17 -37 -26 0 -39 43 -21 65 20 24 35 12 38
-28z"/>
<path d="M2550 2145 c0 -54 0 -55 30 -55 17 0 30 5 30 10 0 6 -9 10 -20 10
-27 0 -25 28 3 33 l22 4 -22 2 c-28 1 -31 31 -3 31 11 0 20 5 20 10 0 6 -13
10 -30 10 -30 0 -30 -1 -30 -55z"/>
<path d="M2790 2190 c0 -5 7 -10 15 -10 11 0 15 -12 15 -45 0 -25 5 -45 11
-45 7 0 8 16 3 45 -6 41 -5 45 15 45 11 0 21 5 21 10 0 6 -18 10 -40 10 -22 0
-40 -4 -40 -10z"/>
<path d="M2950 2145 c0 -54 0 -55 30 -55 17 0 30 5 30 10 0 6 -9 10 -20 10
-27 0 -25 28 3 33 l22 4 -22 2 c-28 1 -31 31 -3 31 11 0 20 5 20 10 0 6 -13
10 -30 10 -30 0 -30 -1 -30 -55z"/>
<path d="M3104 2186 c-10 -25 1 -79 17 -89 10 -6 24 -7 35 -2 17 8 15 9 -9 13
-26 3 -28 7 -25 40 3 31 7 37 26 36 12 0 22 3 22 8 0 14 -60 9 -66 -6z"/>
<path d="M3260 2145 c0 -64 20 -76 21 -12 l1 42 19 -42 c29 -62 49 -57 49 12
0 62 -17 75 -22 18 l-3 -38 -17 38 c-26 57 -48 49 -48 -18z"/>
<path d="M3452 2188 c-17 -17 -15 -73 3 -88 23 -19 64 -4 71 26 14 55 -38 98
-74 62z m56 -47 c-2 -18 -10 -27 -25 -29 -20 -3 -23 1 -23 31 0 20 6 37 13 40
20 7 38 -14 35 -42z"/>
<path d="M3620 2145 c0 -54 0 -55 30 -55 17 0 30 5 30 10 0 6 -9 10 -20 10
-17 0 -20 7 -20 45 0 25 -4 45 -10 45 -5 0 -10 -25 -10 -55z"/>
<path d="M3760 2174 c-21 -54 25 -107 65 -74 18 15 20 71 3 88 -21 21 -58 14
-68 -14z m58 -27 c3 -32 0 -37 -17 -37 -26 0 -39 43 -21 65 20 24 35 12 38
-28z"/>
<path d="M3942 2188 c-32 -32 -1 -102 42 -96 25 4 37 58 13 58 -10 0 -13 -7
-10 -21 5 -17 2 -20 -13 -17 -12 2 -20 13 -22 32 -4 32 13 49 41 40 9 -3 17
-1 17 5 0 15 -53 14 -68 -1z"/>
<path d="M4100 2145 c0 -30 5 -55 10 -55 6 0 10 25 10 55 0 30 -4 55 -10 55
-5 0 -10 -25 -10 -55z"/>
<path d="M4236 2188 c-3 -7 -9 -28 -15 -47 -14 -42 -14 -51 -1 -51 6 0 10 7
10 15 0 8 9 15 20 15 11 0 20 -7 20 -15 0 -8 5 -15 11 -15 11 0 5 42 -12 88
-9 24 -27 29 -33 10z m24 -38 c0 -11 -4 -20 -10 -20 -5 0 -10 9 -10 20 0 11 5
20 10 20 6 0 10 -9 10 -20z"/>
<path d="M2450 1741 c-82 -17 -153 -70 -193 -145 -31 -58 -31 -184 0 -242 50
-94 133 -144 242 -144 108 0 183 43 239 139 23 40 27 57 27 126 0 94 -20 140
-84 198 -65 58 -152 84 -231 68z m68 -158 c-2 -44 -7 -58 -18 -58 -11 0 -16
14 -18 58 -3 52 -1 57 18 57 19 0 21 -5 18 -57z m-68 -108 c0 -12 -13 -15 -60
-15 -47 0 -60 3 -60 15 0 12 13 15 60 15 47 0 60 -3 60 -15z m220 0 c0 -12
-13 -15 -60 -15 -47 0 -60 3 -60 15 0 12 13 15 60 15 47 0 60 -3 60 -15z
m-152 -112 c-2 -44 -7 -58 -18 -58 -11 0 -16 14 -18 58 -3 52 -1 57 18 57 19
0 21 -5 18 -57z"/>
</g>
</svg>
